# xmcd CD database file
# Copyright (C) 1993-1998 Ti Kan
# 
# Track frame offsets:
#     150
#     11890
#     22457
#     34512
#     47672
#     59235
#     71342
#     84147
#     95587
#     105992
# 
# Disc length: 1583 seconds
# 
# Revision: 1
# Processed by: cddbd v1.4b41PL1 Copyright (c) Steve Scherf et al.
# Submitted via: DiscPlay 4.0.4
# 
DISCID=7f062d0a
DTITLE=Patsy Cline - Remembering Patsy Cline Queen Of Country
DYEAR=1900
DGENRE=
TTITLE0=Crazy Dreams
TTITLE1=How Can I Face Tomorrow
TTITLE2=I've Loved And Lost Again
TTITLE3=If I Could See The World ( Through The Eyes Of A Child)
TTITLE4=Lonely Street
TTITLE5=Poor Mans Roses (Or A Rich Man's Gold)
TTITLE6=Yes I Understand
TTITLE7=Hidin' Out
TTITLE8=Three Cigarettes In An Ashtray
TTITLE9=Fingerprints
EXTD=
EXTT0=
EXTT1=
EXTT2=
EXTT3=
EXTT4=
EXTT5=
EXTT6=
EXTT7=
EXTT8=
EXTT9=
PLAYORDER=
